<?xml version="1.0" encoding="UTF-8" standalone="no"?>
<svg
   height="144"
   viewBox="0 -960 2880 2880"
   width="144"
   fill="#6750a4"
   version="1.1"
   id="svg1451"
   sodipodi:docname="manifest_icon_144x144.svg"
   inkscape:version="1.2.2 (b0a8486541, 2022-12-01)"
   xmlns:inkscape="http://www.inkscape.org/namespaces/inkscape"
   xmlns:sodipodi="http://sodipodi.sourceforge.net/DTD/sodipodi-0.dtd"
   xmlns="http://www.w3.org/2000/svg"
   xmlns:svg="http://www.w3.org/2000/svg">
  <defs
     id="defs1455" />
  <sodipodi:namedview
     id="namedview1453"
     pagecolor="#ffffff"
     bordercolor="#666666"
     borderopacity="1.0"
     inkscape:showpageshadow="2"
     inkscape:pageopacity="0.0"
     inkscape:pagecheckerboard="0"
     inkscape:deskcolor="#d1d1d1"
     showgrid="false"
     inkscape:zoom="3.953125"
     inkscape:cx="98.023715"
     inkscape:cy="51.98419"
     inkscape:window-width="1920"
     inkscape:window-height="999"
     inkscape:window-x="0"
     inkscape:window-y="0"
     inkscape:window-maximized="1"
     inkscape:current-layer="svg1451" />
  <rect
     style="fill:#ffffff;fill-opacity:1;stroke:#2f2d2d;stroke-width:0;stroke-linecap:round;stroke-linejoin:round;stroke-dasharray:none;stroke-opacity:0.398536;stop-color:#000000"
     id="rect1626"
     width="2880"
     height="2880"
     x="1.6156298e-06"
     y="-960" />
  <path
     d="m 1003.6364,1280 q -45.00004,0 -77.0364,-32.0545 -32.05455,-32.0364 -32.05455,-77.0364 V -210.90909 q 0,-43.63636 32.72727,-76.36364 Q 960,-320 1003.6364,-320 H 1800 q 45,0 77.0546,32.03636 32.0364,32.05455 32.0364,77.05455 V 61.81818 q 32.7272,5.45455 54.5454,30.81818 21.8182,25.38182 21.8182,57.50909 v 135.3091 q 0,34.54545 -21.8182,60 -21.8182,25.45454 -54.5454,30.90909 v 794.54546 q 0,45 -32.0364,77.0364 Q 1845,1280 1800,1280 Z m 0,-109.0909 H 1800 V -210.90909 h -796.3636 z m 0,0 V -210.90909 Z m 181.8181,-400.00001 h 436.3637 q 30.9091,0 51.8182,-20.90909 20.9091,-20.90909 20.9091,-51.81818 V 552.72727 q -30.9091,0 -51.8182,-20.90909 -20.9091,-20.90909 -20.9091,-51.81818 0,-30.90909 20.9091,-51.81818 20.9091,-20.90909 51.8182,-20.90909 V 261.81818 q 0,-30.90909 -20.9091,-51.81818 -20.9091,-20.90909 -51.8182,-20.90909 h -436.3637 q -30.909,0 -51.8181,20.90909 -20.9091,20.90909 -20.9091,51.81818 v 145.45455 q 30.9091,0 51.8182,20.90909 20.909,20.90909 20.909,51.81818 0,30.90909 -20.909,51.81818 -20.9091,20.90909 -51.8182,20.90909 v 145.45455 q 0,30.90909 20.9091,51.81818 20.9091,20.90909 51.8181,20.90909 z m 218.1819,-109.09091 q -14.5455,0 -25.4546,-10.90909 -10.9091,-10.90909 -10.9091,-25.45454 0,-14.54546 10.9091,-25.45455 10.9091,-10.90909 25.4546,-10.90909 14.5454,0 25.4545,10.90909 10.9091,10.90909 10.9091,25.45455 0,14.54545 -10.9091,25.45454 -10.9091,10.90909 -25.4545,10.90909 z m 0,-145.45454 q -14.5455,0 -25.4546,-10.9091 -10.9091,-10.90909 -10.9091,-25.45454 0,-14.54545 10.9091,-25.45455 10.9091,-10.90909 25.4546,-10.90909 14.5454,0 25.4545,10.90909 Q 1440,465.45455 1440,480 q 0,14.54545 -10.9091,25.45454 -10.9091,10.9091 -25.4545,10.9091 z m 0,-145.45455 q -14.5455,0 -25.4546,-10.90909 -10.9091,-10.90909 -10.9091,-25.45455 0,-14.54545 10.9091,-25.45454 10.9091,-10.90909 25.4546,-10.90909 14.5454,0 25.4545,10.90909 Q 1440,320 1440,334.54545 q 0,14.54546 -10.9091,25.45455 -10.9091,10.90909 -25.4545,10.90909 z"
     id="path1449"
     style="stroke-width:1.81818" />
</svg>
