<?xml version="1.0" encoding="UTF-8" standalone="no"?>
<!-- Created with Inkscape (http://www.inkscape.org/) -->

<svg
   width="120mm"
   height="120mm"
   viewBox="0 0 120 120"
   version="1.1"
   id="svg5"
   inkscape:version="1.1.2 (0a00cf5339, 2022-02-04)"
   sodipodi:docname="logo_oasis_120x120.svg"
   xmlns:inkscape="http://www.inkscape.org/namespaces/inkscape"
   xmlns:sodipodi="http://sodipodi.sourceforge.net/DTD/sodipodi-0.dtd"
   xmlns="http://www.w3.org/2000/svg"
   xmlns:svg="http://www.w3.org/2000/svg">
  <sodipodi:namedview
     id="namedview7"
     pagecolor="#ffffff"
     bordercolor="#666666"
     borderopacity="1.0"
     inkscape:pageshadow="2"
     inkscape:pageopacity="0.0"
     inkscape:pagecheckerboard="0"
     inkscape:document-units="mm"
     showgrid="false"
     showguides="true"
     inkscape:guide-bbox="true"
     inkscape:zoom="1.2650112"
     inkscape:cx="235.17578"
     inkscape:cy="169.16846"
     inkscape:window-width="1920"
     inkscape:window-height="1003"
     inkscape:window-x="0"
     inkscape:window-y="40"
     inkscape:window-maximized="1"
     inkscape:current-layer="layer1" />
  <defs
     id="defs2">
    <rect
       x="219.30316"
       y="140.3457"
       width="313.35928"
       height="98.531433"
       id="rect8206" />
  </defs>
  <g
     inkscape:label="Layer 1"
     inkscape:groupmode="layer"
     id="layer1">
    <circle
       style="fill:#000080;stroke:#ff0000;stroke-width:0.0775413;stroke-linecap:round;stroke-linejoin:round;stop-color:#000000"
       id="path846"
       cx="60"
       cy="60"
       r="49.961231" />
    <g
       aria-label="H"
       transform="scale(1.268798,0.78814753)"
       id="text2558"
       style="font-size:66.6233px;line-height:1.25;font-family:Roboto;-inkscape-font-specification:Roboto;letter-spacing:0px;word-spacing:0px;fill:#f4e9e9;stroke-width:1.66558">
      <path
         d="m 28.778766,51.843556 h 6.571243 V 71.752471 H 59.227695 V 51.843556 h 6.571243 V 100.4122 H 59.227695 V 77.282726 H 35.350009 V 100.4122 h -6.571243 z"
         id="path38087" />
    </g>
    <ellipse
       style="fill:none;fill-opacity:1;stroke:#ff0000;stroke-width:3.6135;stroke-linecap:round;stroke-linejoin:round;stroke-miterlimit:4;stroke-dasharray:none;stop-color:#000000"
       id="path5420"
       cx="-78.479477"
       cy="31.07222"
       rx="39.495708"
       ry="38.875092"
       transform="matrix(-0.39909939,-0.91690767,0.92297527,-0.38485927,0,0)" />
    <g
       aria-label="OASIS"
       transform="rotate(3.2502403,-137.03613,52.399786)"
       id="text8204"
       style="font-size:9.57835px;line-height:1.25;font-family:Roboto;-inkscape-font-specification:Roboto;letter-spacing:0px;word-spacing:0px;white-space:pre;fill:#faf905">
      <path
         d="m 45.911455,16.44588 q -0.982956,0.304113 -1.33709,1.216564 -0.349667,0.911069 0.04153,2.175507 0.389817,1.25997 1.192889,1.814398 0.807539,0.553045 1.790494,0.248932 0.982955,-0.304113 1.328154,-1.213799 0.349667,-0.911069 -0.04015,-2.171039 -0.3912,-1.264438 -1.194271,-1.818865 -0.798603,-0.55581 -1.781558,-0.251698 z m -0.226703,-0.732748 q 1.402945,-0.434052 2.534597,0.248813 1.130269,0.678398 1.619614,2.260062 0.487963,1.577196 -0.06034,2.779817 -0.549691,1.198154 -1.952636,1.632205 -1.407413,0.435435 -2.54215,-0.24158 -1.130269,-0.678397 -1.619614,-2.260061 -0.489345,-1.581665 0.06035,-2.779818 0.552776,-1.204004 1.960189,-1.639438 z"
         id="path38076" />
      <path
         d="m 53.776632,15.074089 -0.857961,3.602974 2.549313,-0.306179 z m -0.640349,-0.86049 1.063375,-0.127714 3.474836,6.615498 -0.975147,0.117118 -0.845124,-1.702635 -3.125115,0.375335 -0.417923,1.85433 -0.989078,0.118791 z"
         id="path38078" />
      <path
         d="m 63.180866,14.186388 -0.03978,0.920496 q -0.526239,-0.280214 -0.997389,-0.426971 -0.471149,-0.146757 -0.915043,-0.165941 -0.770974,-0.03332 -1.204429,0.24755 -0.428782,0.281072 -0.452611,0.832435 -0.01999,0.462584 0.245391,0.712799 0.270257,0.245745 1.039643,0.424116 l 0.565005,0.141451 q 1.047317,0.246558 1.52527,0.777475 0.482828,0.526446 0.446076,1.376854 -0.04382,1.013947 -0.748632,1.507791 -0.70014,0.494047 -2.013131,0.437303 -0.495292,-0.02141 -1.051154,-0.15778 -0.551189,-0.136172 -1.139786,-0.381631 l 0.042,-0.971894 q 0.560792,0.347246 1.105087,0.534614 0.544295,0.187369 1.076968,0.21039 0.808354,0.03493 1.261307,-0.263818 0.452953,-0.298752 0.478397,-0.887496 0.02221,-0.513982 -0.283001,-0.817413 -0.300542,-0.303229 -1.013857,-0.479177 l -0.56988,-0.13698 q -1.046913,-0.255903 -1.499456,-0.724865 -0.452543,-0.468962 -0.418012,-1.267971 0.03998,-0.925169 0.712491,-1.429772 0.677181,-0.504401 1.82196,-0.454927 0.490619,0.0212 0.996092,0.131994 0.505473,0.11079 1.030472,0.311368 z"
         id="path38080" />
      <path
         d="m 65.854552,14.316816 0.9332,0.147204 -1.087999,6.897371 -0.933201,-0.147205 z"
         id="path38082" />
      <path
         d="m 73.384336,16.267137 -0.244179,0.88841 q -0.450443,-0.390574 -0.876966,-0.638763 -0.426522,-0.24819 -0.854943,-0.365941 -0.744099,-0.204515 -1.229299,-0.02745 -0.48069,0.178306 -0.626949,0.71045 -0.122709,0.446459 0.08015,0.749583 0.208607,0.299854 0.918792,0.645409 l 0.519196,0.26396 q 0.965892,0.474041 1.313326,1.098222 0.353182,0.620912 0.127596,1.441676 -0.268969,0.978604 -1.066207,1.302724 -0.792728,0.32536 -2.059952,-0.02294 -0.478027,-0.131386 -0.989443,-0.388357 -0.506906,-0.255731 -1.02589,-0.626341 L 67.62738,20.35977 q 0.469167,0.463625 0.957929,0.767724 0.488762,0.304099 1.002867,0.4454 0.780177,0.214431 1.288373,0.02428 0.508197,-0.190148 0.664372,-0.758369 0.136343,-0.496066 -0.09347,-0.859953 -0.225301,-0.362646 -0.88137,-0.693328 l -0.524944,-0.260689 q -0.963414,-0.48306 -1.299903,-1.041179 -0.336488,-0.558118 -0.124536,-1.329276 0.245418,-0.892919 1.013567,-1.234736 0.772659,-0.340577 1.877534,-0.0369 0.473518,0.130146 0.941524,0.350934 0.468006,0.220789 0.935011,0.533458 z"
         id="path38084" />
    </g>
  </g>
</svg>
