<?xml version="1.0" encoding="UTF-8" standalone="no"?>
<!-- Created with Inkscape (http://www.inkscape.org/) -->

<svg
   width="120mm"
   height="120mm"
   viewBox="0 0 120 120"
   version="1.1"
   id="svg5"
   inkscape:version="1.1.2 (0a00cf5339, 2022-02-04)"
   sodipodi:docname="logo_oasis_120x120_ru.svg"
   xmlns:inkscape="http://www.inkscape.org/namespaces/inkscape"
   xmlns:sodipodi="http://sodipodi.sourceforge.net/DTD/sodipodi-0.dtd"
   xmlns="http://www.w3.org/2000/svg"
   xmlns:svg="http://www.w3.org/2000/svg">
  <sodipodi:namedview
     id="namedview7"
     pagecolor="#ffffff"
     bordercolor="#666666"
     borderopacity="1.0"
     inkscape:pageshadow="2"
     inkscape:pageopacity="0.0"
     inkscape:pagecheckerboard="0"
     inkscape:document-units="mm"
     showgrid="false"
     showguides="true"
     inkscape:guide-bbox="true"
     inkscape:zoom="1.2650112"
     inkscape:cx="222.52767"
     inkscape:cy="252.17168"
     inkscape:window-width="1920"
     inkscape:window-height="1003"
     inkscape:window-x="0"
     inkscape:window-y="40"
     inkscape:window-maximized="1"
     inkscape:current-layer="layer1" />
  <defs
     id="defs2">
    <rect
       x="219.30316"
       y="140.3457"
       width="313.35928"
       height="98.531433"
       id="rect8206" />
  </defs>
  <g
     inkscape:label="Layer 1"
     inkscape:groupmode="layer"
     id="layer1">
    <circle
       style="fill:#000080;stroke:#ff0000;stroke-width:0.0775413;stroke-linecap:round;stroke-linejoin:round;stop-color:#000000"
       id="path846"
       cx="60"
       cy="60"
       r="49.961231" />
    <g
       aria-label="H"
       transform="scale(1.268798,0.78814753)"
       id="text2558"
       style="font-size:66.6233px;line-height:1.25;font-family:Roboto;-inkscape-font-specification:Roboto;letter-spacing:0px;word-spacing:0px;fill:#f4e9e9;stroke-width:1.66558">
      <path
         d="m 28.778766,51.843556 h 6.571243 V 71.752471 H 59.227695 V 51.843556 h 6.571243 V 100.4122 H 59.227695 V 77.282726 H 35.350009 V 100.4122 h -6.571243 z"
         id="path38087" />
    </g>
    <ellipse
       style="fill:none;fill-opacity:1;stroke:#ff0000;stroke-width:3.6135;stroke-linecap:round;stroke-linejoin:round;stroke-miterlimit:4;stroke-dasharray:none;stop-color:#000000"
       id="path5420"
       cx="-78.479477"
       cy="31.07222"
       rx="39.495708"
       ry="38.875092"
       transform="matrix(-0.39909939,-0.91690767,0.92297527,-0.38485927,0,0)" />
    <g
       aria-label="ОАЗИС"
       transform="matrix(0.99851191,-0.05453407,0.04730767,0.8661975,-3.7281409,17.432909)"
       id="text41117"
       style="font-size:10.5833px;line-height:1.25;font-family:Roboto;-inkscape-font-specification:Roboto;letter-spacing:0px;word-spacing:0px;stroke-width:0.264583">
      <path
         d="m 46.17736,15.670801 q -1.09018,0.322489 -1.493977,1.32573 -0.398841,1.001775 0.016,2.404143 0.413372,1.397413 1.293014,2.020997 0.884598,0.622118 1.974778,0.299629 1.09018,-0.322488 1.484066,-1.322798 0.398841,-1.001775 -0.01453,-2.399188 -0.414837,-1.402368 -1.29448,-2.025952 -0.874687,-0.625049 -1.964867,-0.302561 z m -0.240401,-0.812679 q 1.555985,-0.46028 2.796889,0.309721 1.239438,0.765045 1.758352,2.519244 0.517447,1.749243 -0.104865,3.070406 -0.623778,1.316208 -2.179762,1.776487 -1.56094,0.461745 -2.805334,-0.301834 -1.239438,-0.765046 -1.758352,-2.519244 -0.518913,-1.754199 0.104865,-3.070407 0.627268,-1.322628 2.188207,-1.784373 z"
         style="fill:#faf905"
         id="path829" />
      <path
         d="m 55.221118,14.287051 -1.081633,3.946776 2.826588,-0.24316 z m -0.675081,-0.974082 1.179031,-0.101427 3.590833,7.434857 -1.081208,0.09301 -0.869848,-1.911682 -3.465015,0.298083 -0.530574,2.032154 -1.096655,0.09434 z"
         style="fill:#faf905"
         id="path831" />
      <path
         d="m 63.170389,13.126242 q 1.265605,0.11952 2.01717,0.73551 0.75205,0.610846 0.665568,1.526609 -0.06025,0.637947 -0.467305,1.045899 -0.406574,0.402807 -1.096568,0.508937 0.730926,0.229935 1.100036,0.773474 0.374255,0.544024 0.304292,1.284866 -0.111746,1.183289 -1.084354,1.698742 -0.966977,0.510793 -2.191425,0.39516 -0.627658,-0.05927 -1.342177,-0.298041 Q 60.361107,20.55863 60.148342,20.3932 l 0.101057,-1.070105 q 0.743904,0.532217 1.165373,0.686213 0.4271,0.149337 1.065047,0.209582 0.967211,0.09134 1.537245,-0.228552 0.570034,-0.319892 0.642426,-1.086458 0.06413,-0.679105 -0.378375,-1.105 -0.436877,-0.430553 -1.4401,-0.525295 l -1.049527,-0.09911 0.08065,-0.854026 1.090684,0.103001 q 0.920908,0.08697 1.356007,-0.17819 0.435586,-0.270301 0.490001,-0.846512 0.05587,-0.591645 -0.336358,-0.945313 -0.386601,-0.358328 -1.405259,-0.454527 -0.689394,-0.0651 -0.931882,-0.02572 -0.242489,0.03939 -1.33457,0.335933 l 0.09571,-1.013513 q 0.600789,-0.150888 1.216127,-0.181018 0.615339,-0.03013 1.057786,0.01165 z"
         style="fill:#faf905"
         id="path833" />
      <path
         d="m 74.945568,15.735415 -2.126949,7.416295 -0.973606,-0.279224 1.779343,-6.204255 -5.067747,5.26116 -1.351127,-0.387495 2.126949,-7.416295 0.973606,0.279224 -1.779343,6.204255 5.067747,-5.26116 z"
         style="fill:#faf905"
         id="path835" />
      <path
         d="m 83.128353,20.202803 -0.497784,0.981713 q -0.2481,-0.676229 -0.672902,-1.163945 -0.420194,-0.485379 -1.019362,-0.789191 -1.179899,-0.598276 -2.173632,-0.192499 -0.991396,0.401167 -1.683153,1.765426 -0.689419,1.35965 -0.429509,2.401094 0.262247,1.036836 1.442147,1.635112 0.599168,0.303812 1.239041,0.355946 0.644481,0.05447 1.336614,-0.145006 l -0.49311,0.972495 q -0.656817,0.08412 -1.289419,-0.02806 -0.627993,-0.109844 -1.236378,-0.41833 -1.562446,-0.792248 -1.977435,-2.202026 -0.412653,-1.414386 0.426336,-3.069011 0.841325,-1.659234 2.223839,-2.157576 1.384851,-0.50295 2.947296,0.289298 0.617604,0.31316 1.077331,0.754851 0.466674,0.439419 0.78008,1.009707 z"
         style="fill:#faf905"
         id="path837" />
    </g>
  </g>
</svg>
